<?xml version="1.0" encoding="UTF-8"?>
<svg id="Layer_1" data-name="Layer 1" xmlns="http://www.w3.org/2000/svg" viewBox="0 0 5479.08 8112.53">
  <defs>
    <style>
      .cls-1 {
        fill: #fff;
      }
    </style>
  </defs>
  <path d="M5447.62,2336.89C5237.14,941.8,3969.53-97.2,2602.04,7.23,1098.98,121.88-10.76,1293.95.08,2755.45c6.3,641.81,194.11,1241.48,435.09,1826.4,489.96,1189.19,1172.34,2267.63,1921.84,3306.5,212.07,293.94,533.38,299.85,755.53,11.68,92.43-119.86,178.45-244.88,264.58-369.39,728.64-1053.79,1395.79-2141.51,1822.73-3358.37,208.18-593.44,343.82-1198.84,247.77-1835.38"/>
  <g>
    <polygon class="cls-1" points="1806.86 4413.7 2010.94 4413.7 2010.94 3673.23 3015.77 3673.23 3015.77 4413.7 3219.85 4413.7 3219.85 3673.23 3493.19 3673.23 3493.19 4413.7 3697.27 4413.7 3697.27 3469.15 1806.86 3469.15 1806.86 4413.7"/>
    <polygon class="cls-1" points="3493.2 1566.64 3493.2 2971.13 3219.86 2971.13 3219.86 1566.64 3015.78 1566.64 3015.78 2971.13 2010.94 2971.13 2010.94 1566.64 1806.86 1566.64 1806.86 3175.21 3697.28 3175.21 3697.28 1566.64 3493.2 1566.64"/>
    <rect class="cls-1" x="1354.86" y="1566.64" width="204.08" height="2847.06"/>
    <path class="cls-1" d="M4174.55,1981.77c-133.77,0-242.57-108.79-242.57-242.58s108.8-242.55,242.57-242.55,242.57,108.84,242.57,242.55-108.8,242.58-242.57,242.58M4174.55,1605.27c-73.87,0-133.94,60.13-133.94,133.92s60.07,134,133.94,134,133.94-60.13,133.94-134-60.07-133.92-133.94-133.92"/>
    <polygon class="cls-1" points="1354.88 4656.09 1440.19 4656.09 1440.19 4964.58 1598.27 4964.58 1598.27 5043.32 1354.88 5043.32 1354.88 4656.09"/>
    <rect class="cls-1" x="1753.55" y="4656.12" width="85.31" height="387.22"/>
    <polygon class="cls-1" points="1987.64 4656.09 2085 4656.09 2180.71 4909.88 2181.81 4909.88 2279.17 4656.09 2370.5 4656.09 2210.77 5043.32 2142.44 5043.32 1987.64 4656.09"/>
    <rect class="cls-1" x="2519.21" y="4656.12" width="85.31" height="387.22"/>
    <polygon class="cls-1" points="2791.58 4656.09 2907.56 4656.09 3072.16 4925.22 3073.25 4925.22 3073.25 4656.09 3158.56 4656.09 3158.56 5043.32 3047.02 5043.32 2877.99 4767.69 2876.89 4767.69 2876.89 5043.32 2791.58 5043.32 2791.58 4656.09"/>
    <path class="cls-1" d="M3697.29,5015.99c-25.13,13.15-51.41,22.62-78.74,28.42-27.38,5.8-55.25,8.77-83.67,8.77-30.29,0-58.21-4.79-83.73-14.25-25.52-9.46-47.58-23.05-66.15-40.75-18.62-17.67-33.07-39.09-43.47-64.27-10.41-25.13-15.61-53.23-15.61-84.22s5.2-59.03,15.61-84.22c10.4-25.19,24.86-46.57,43.47-64.27,18.56-17.62,40.63-31.2,66.15-40.69,25.51-9.52,53.44-14.22,83.73-14.22s59.46,3.72,85.52,11.18c26.12,7.49,48.95,20.37,68.67,38.53l-60.12,65.66c-11.72-12.06-24.8-21.12-39.42-27.32-14.56-6.18-32.8-9.3-54.64-9.3-18.23,0-34.77,3.13-49.56,9.3-14.73,6.2-27.43,14.84-37.95,25.96-10.63,11.12-18.73,24.3-24.37,39.7-5.64,15.27-8.48,31.87-8.48,49.7s2.84,34.94,8.48,50.05c5.64,15.16,13.74,28.31,24.37,39.38,10.51,11.15,23.21,19.81,37.95,25.99,14.79,6.2,31.32,9.33,49.56,9.33s34.6-2.09,48.07-6.31c13.53-4.22,24.26-8.48,32.3-12.86v-62.91h-69.48v-78.74h151.51v202.37Z"/>
  </g>
</svg>