<?xml version="1.0" encoding="UTF-8"?>
<svg id="Layer_1" data-name="Layer 1" xmlns="http://www.w3.org/2000/svg" viewBox="0 0 594.1 128.69">
  <path d="M63.95,45.08c-1.96-1.25-4.1-2.41-6.42-3.48-1.96-.98-4.17-1.89-6.62-2.74-2.45-.85-4.93-1.49-7.42-1.94v12.04c.8.18,1.65.42,2.54.74.89.31,1.83.6,2.81.87,4.37,1.34,8.32,2.81,11.84,4.42,3.52,1.61,6.53,3.5,9.03,5.69,2.5,2.19,4.42,4.84,5.75,7.96,1.34,3.12,2.01,6.91,2.01,11.37,0,5.26-.92,9.74-2.74,13.44-1.83,3.7-4.24,6.73-7.22,9.1-2.99,2.36-6.4,4.15-10.23,5.35-3.84,1.2-7.81,1.94-11.91,2.21v16.19h-10.7v-16.45c-6.15-.54-12.26-1.74-18.33-3.61-6.07-1.87-11.5-4.23-16.32-7.09l11.24-22.88c2.41,1.52,4.99,2.94,7.76,4.28,2.32,1.16,5.02,2.3,8.09,3.41,3.08,1.12,6.22,1.9,9.43,2.34v-11.77c-2.76-.71-5.53-1.56-8.29-2.54-4.19-1.42-7.8-2.96-10.84-4.62-3.03-1.65-5.53-3.52-7.49-5.62-1.96-2.09-3.41-4.48-4.35-7.16s-1.41-5.75-1.41-9.23c0-4.82.8-9.07,2.41-12.78,1.61-3.7,3.79-6.89,6.56-9.57,2.76-2.68,6-4.82,9.7-6.42,3.7-1.61,7.65-2.63,11.84-3.08V0h10.7v13.65c2.94.36,5.8.89,8.56,1.61,2.76.71,5.42,1.54,7.96,2.47,2.54.94,4.93,1.92,7.16,2.94,2.23,1.03,4.28,1.99,6.15,2.88l-11.24,21.54ZM31.17,41.07c0,1.34.45,2.43,1.34,3.28.89.85,2.23,1.63,4.01,2.34v-10.17c-3.57.45-5.35,1.96-5.35,4.55ZM49.36,82.54c0-1.25-.54-2.34-1.61-3.28-1.07-.94-2.5-1.76-4.28-2.47v9.9c2.14-.18,3.66-.62,4.55-1.34.89-.71,1.34-1.65,1.34-2.81Z"/>
  <path d="M135.65,77.32c2.76.45,5.28,1.38,7.56,2.81,2.27,1.43,4.23,3.21,5.89,5.35,1.65,2.14,2.94,4.57,3.88,7.29.94,2.72,1.4,5.6,1.4,8.63,0,4.19-.89,7.98-2.68,11.37-1.79,3.39-4.3,6.26-7.56,8.63-3.26,2.36-7.25,4.17-11.97,5.42-4.73,1.25-10.03,1.87-15.92,1.87-6.87,0-12.93-.87-18.19-2.61-5.26-1.74-10.03-4.44-14.31-8.09l12.98-18.46c2.59,2.05,5.33,3.54,8.23,4.48,2.9.94,6.22,1.4,9.97,1.4,4.55,0,7.87-.69,9.97-2.07,2.09-1.38,3.14-3.59,3.14-6.62,0-3.39-1.34-5.82-4.01-7.29s-7.05-2.21-13.11-2.21h-4.15v-17.66h4.68c4.28,0,7.71-.82,10.3-2.48,2.59-1.65,3.88-3.9,3.88-6.76,0-2.14-.76-3.81-2.27-5.02-1.52-1.2-3.66-1.81-6.42-1.81-3.12,0-6.04.78-8.76,2.34-2.72,1.56-5.11,3.9-7.16,7.02l-16.05-18.86c1.61-1.78,3.63-3.41,6.09-4.88,2.45-1.47,5.22-2.74,8.29-3.81,3.08-1.07,6.35-1.89,9.83-2.47,3.48-.58,7.04-.87,10.7-.87,4.9,0,9.41.56,13.51,1.67,4.1,1.12,7.58,2.7,10.43,4.75,2.85,2.05,5.08,4.53,6.69,7.42,1.61,2.9,2.41,6.13,2.41,9.7,0,2.68-.45,5.22-1.34,7.62-.89,2.41-2.1,4.59-3.61,6.56-1.52,1.96-3.32,3.61-5.42,4.95-2.1,1.34-4.39,2.23-6.89,2.68Z"/>
  <path d="M165.48,109.03v-24.62h20.6v24.62h-20.6Z"/>
  <path d="M196.92,109.03c0-4.46.36-8.38,1.07-11.77.71-3.39,1.87-6.44,3.48-9.16,1.61-2.72,3.68-5.15,6.22-7.29,2.54-2.14,5.69-4.24,9.43-6.29,4.82-2.59,8.63-4.66,11.44-6.22,2.81-1.56,4.93-2.83,6.35-3.81,1.43-.98,2.34-1.81,2.74-2.47s.6-1.41.6-2.21c0-2.23-.71-3.88-2.14-4.95-1.43-1.07-3.39-1.61-5.89-1.61-2.94,0-5.73.76-8.36,2.27-2.63,1.52-5.37,3.97-8.23,7.36l-16.05-18.86c1.69-1.87,3.88-3.59,6.55-5.15,2.68-1.56,5.64-2.9,8.9-4.01,3.25-1.11,6.71-1.98,10.37-2.61,3.66-.62,7.4-.94,11.24-.94,10.25,0,18.04,2.12,23.34,6.35,5.3,4.24,7.96,10.15,7.96,17.73,0,2.77-.36,5.22-1.07,7.36-.71,2.14-1.67,4.08-2.88,5.82s-2.65,3.32-4.35,4.75c-1.7,1.43-3.48,2.77-5.35,4.01-2.23,1.52-4.57,2.97-7.02,4.35-2.45,1.38-4.88,2.92-7.29,4.62h29.43v22.74h-70.5Z"/>
  <path d="M383,109.03v-50.03l-15.92,35.18h-13.91l-15.92-35.18v50.03h-26.09V14.05h28.5l20.47,44.68,20.6-44.68h28.36v94.98h-26.09Z"/>
  <path d="M425.4,109.03V14.05h36.52c7.85,0,14.76,1.25,20.74,3.75,5.97,2.5,10.97,5.89,14.98,10.17,4.01,4.28,7.04,9.3,9.1,15.05,2.05,5.75,3.08,11.88,3.08,18.39,0,7.22-1.14,13.76-3.41,19.6-2.27,5.84-5.51,10.84-9.7,14.98-4.19,4.15-9.23,7.36-15.12,9.63-5.89,2.27-12.44,3.41-19.67,3.41h-36.52ZM483.33,61.4c0-3.66-.49-7-1.47-10.03-.98-3.03-2.39-5.62-4.21-7.76-1.83-2.14-4.08-3.81-6.76-5.02-2.67-1.2-5.66-1.81-8.96-1.81h-10.43v49.5h10.43c3.39,0,6.42-.62,9.1-1.87,2.68-1.25,4.93-2.99,6.76-5.22,1.83-2.23,3.21-4.86,4.15-7.89.94-3.03,1.4-6.33,1.4-9.9Z"/>
  <path d="M521.19,109.03V14.05h40.94c4.64,0,8.92.96,12.84,2.88,3.92,1.92,7.29,4.42,10.1,7.49,2.81,3.08,5.02,6.6,6.62,10.57,1.61,3.97,2.41,7.96,2.41,11.97s-.76,8.27-2.27,12.24c-1.52,3.97-3.63,7.49-6.35,10.57-2.72,3.08-6.02,5.53-9.9,7.36-3.88,1.83-8.14,2.74-12.78,2.74h-15.52v29.16h-26.09ZM547.27,57.12h13.78c1.61,0,3.1-.74,4.48-2.21,1.38-1.47,2.07-4.12,2.07-7.96s-.8-6.6-2.41-8.03c-1.61-1.42-3.21-2.14-4.82-2.14h-13.11v20.33Z"/>
</svg>