<?xml version="1.0" encoding="UTF-8"?>
<svg id="Layer_1" data-name="Layer 1" xmlns="http://www.w3.org/2000/svg" viewBox="0 0 306.32 136.45">
  <path d="M50.01,104.25c-6.63,0-13.06-1.19-19.11-3.55-6.08-2.36-11.46-5.86-15.99-10.39-4.53-4.53-8.19-10.13-10.87-16.66-2.69-6.52-4.05-14.05-4.05-22.37,0-7.21,1.37-14.01,4.06-20.21,2.69-6.2,6.44-11.66,11.16-16.23,4.71-4.56,10.33-8.22,16.71-10.85,6.39-2.64,13.37-3.98,20.75-3.98,4.59,0,9.06.51,13.29,1.52,4.23,1.01,8.21,2.53,11.83,4.5,3.61,1.97,6.91,4.37,9.81,7.12,2.92,2.77,5.33,5.95,7.18,9.46l.59,1.12-22.84,17.48-.81-1.62c-1.83-3.66-4.62-6.65-8.3-8.88-3.68-2.23-7.63-3.37-11.74-3.37-3.04,0-5.85.61-8.35,1.82-2.51,1.21-4.71,2.93-6.54,5.1-1.84,2.19-3.31,4.85-4.37,7.89-1.06,3.06-1.6,6.47-1.6,10.13s.54,7.18,1.6,10.19c1.06,3,2.55,5.6,4.42,7.74,1.86,2.12,4.12,3.79,6.73,4.96,2.6,1.17,5.57,1.77,8.81,1.77,6.41,0,12.25-2.3,17.41-6.84h-15.11v-22.69h44.06v56.15h-25.64v-6.72c-6.8,4.93-14.56,7.42-23.11,7.42ZM52.68,3c-6.98,0-13.58,1.26-19.61,3.75-6.03,2.49-11.33,5.94-15.77,10.24-4.43,4.3-7.96,9.44-10.5,15.27-2.53,5.82-3.81,12.22-3.81,19.02,0,7.93,1.29,15.07,3.82,21.23,2.53,6.16,5.97,11.44,10.22,15.68,4.23,4.24,9.26,7.51,14.95,9.72,5.7,2.22,11.76,3.34,18.02,3.34,8.88,0,16.83-2.91,23.64-8.65l2.47-2.08v10.02h19.64v-50.15h-38.06v16.69h19.24l-2.34,2.52c-6.36,6.85-13.83,10.32-22.19,10.32-3.67,0-7.04-.68-10.04-2.03-3-1.35-5.61-3.27-7.75-5.72-2.13-2.43-3.81-5.36-5-8.72-1.18-3.33-1.77-7.1-1.77-11.19s.6-7.73,1.77-11.11c1.18-3.39,2.83-6.36,4.91-8.84,2.1-2.5,4.63-4.47,7.53-5.87,2.91-1.41,6.16-2.12,9.65-2.12,4.67,0,9.14,1.28,13.29,3.8,3.62,2.2,6.5,5.06,8.56,8.52l17.98-13.76c-1.61-2.78-3.62-5.33-5.99-7.58-2.71-2.57-5.8-4.81-9.18-6.66-3.38-1.85-7.12-3.27-11.09-4.22-3.99-.95-8.23-1.44-12.59-1.44Z"/>
  <path d="M120.75,136.45c-4.95,0-9.78-.94-14.34-2.78l-.94-.38v-25.95l2.02.75c4.13,1.53,7.64,2.3,10.45,2.3,4.82,0,7.33-2.59,7.9-8.15l-27.48-75.66h30.71l12.76,46.59,10.34-46.59h28.11l-25.61,84.76c-1.17,3.79-2.84,7.26-4.99,10.34-2.15,3.08-4.75,5.75-7.72,7.94-2.98,2.2-6.32,3.9-9.92,5.07-3.6,1.17-7.4,1.76-11.29,1.76ZM108.46,131.25c3.93,1.46,8.05,2.2,12.28,2.2,3.58,0,7.06-.54,10.37-1.61,3.3-1.07,6.35-2.63,9.07-4.63,2.71-2,5.08-4.44,7.04-7.25,1.97-2.82,3.51-6.01,4.58-9.5l24.44-80.88h-21.67l-12.44,56.06-15.36-56.06h-24.14l26.24,72.27-.03.33c-.8,9.27-6.38,11.22-10.92,11.22-2.68,0-5.85-.6-9.47-1.78v19.64Z"/>
  <path d="M306.32,103.54h-29.72v-43.12c0-3.26-.61-5.6-1.8-6.95-1.17-1.32-2.53-1.96-4.15-1.96-1.79,0-3.76.88-5.87,2.61-2.11,1.74-3.7,3.99-4.73,6.71v42.71h-29.72v-43.12c0-3.26-.61-5.6-1.8-6.95-1.17-1.32-2.52-1.96-4.15-1.96-1.79,0-3.76.88-5.87,2.61-2.11,1.74-3.7,3.99-4.73,6.71v42.71h-29.72V26.58h27.05v8.11c2.39-2.58,5.31-4.66,8.7-6.22,4.77-2.19,10.47-3.3,16.94-3.3,3.14,0,5.94.38,8.32,1.12,2.39.75,4.51,1.79,6.28,3.11,1.78,1.32,3.22,2.82,4.3,4.46.54.82,1.02,1.67,1.44,2.54,2.57-3.19,5.83-5.78,9.72-7.7,4.73-2.34,10.18-3.53,16.2-3.53,5.14,0,9.32,1,12.41,2.98,3.06,1.96,5.43,4.43,7.04,7.36,1.58,2.87,2.63,5.97,3.12,9.22.48,3.15.72,6.07.72,8.66v50.15ZM279.6,100.54h23.72v-47.15c0-2.44-.23-5.21-.69-8.21-.44-2.9-1.38-5.67-2.78-8.22-1.37-2.48-3.4-4.6-6.03-6.28-2.6-1.66-6.23-2.51-10.79-2.51-5.55,0-10.56,1.08-14.87,3.22-4.28,2.12-7.7,5.11-10.17,8.9l-1.7,2.61-.98-2.95c-.52-1.55-1.24-3.04-2.15-4.43-.88-1.34-2.09-2.59-3.58-3.7-1.5-1.11-3.31-2.01-5.39-2.65-2.09-.65-4.59-.99-7.43-.99-6.03,0-11.31,1.02-15.69,3.03-4.31,1.98-7.74,4.89-10.2,8.67l-2.76,4.23v-14.52h-21.05v70.97h23.72v-40.25l.09-.25c1.21-3.33,3.14-6.11,5.73-8.24,2.66-2.19,5.27-3.3,7.77-3.3s4.65,1,6.4,2.97c1.72,1.95,2.56,4.87,2.56,8.94v40.12h23.72v-40.25l.09-.25c1.21-3.33,3.14-6.11,5.73-8.24,2.66-2.19,5.27-3.3,7.77-3.3s4.65,1,6.4,2.97c1.72,1.94,2.56,4.87,2.56,8.94v40.12Z"/>
</svg>