<?xml version="1.0" encoding="UTF-8"?>
<svg id="Layer_1" data-name="Layer 1" xmlns="http://www.w3.org/2000/svg" viewBox="0 0 599.51 104.39">
  <path d="M30.42,102.84H0V0h44.53c5.08,0,9.84,1.07,14.16,3.18,4.28,2.09,8,4.85,11.07,8.21,3.06,3.35,5.5,7.24,7.24,11.56,1.75,4.33,2.64,8.76,2.64,13.15s-.84,9.08-2.49,13.4c-1.65,4.32-3.99,8.21-6.96,11.57-2.99,3.38-6.65,6.1-10.89,8.1-4.26,2.01-8.99,3.03-14.07,3.03h-14.81v30.66ZM3,99.84h24.42v-30.66h17.81c4.63,0,8.93-.92,12.79-2.74,3.87-1.82,7.2-4.3,9.92-7.37,2.72-3.08,4.88-6.67,6.4-10.65,1.52-3.98,2.29-8.13,2.29-12.33s-.81-8.05-2.42-12.02c-1.61-3.99-3.86-7.57-6.68-10.66-2.81-3.08-6.23-5.61-10.17-7.54-3.9-1.9-8.22-2.87-12.84-2.87H3v96.84ZM43.4,48.28h-15.98v-24.37h15.28c2.06,0,4.09.88,6.06,2.63,2.04,1.82,3.04,4.94,3.04,9.56s-.85,7.54-2.59,9.39c-1.74,1.85-3.7,2.79-5.8,2.79ZM30.42,45.28h12.98c1.27,0,2.45-.6,3.62-1.85,1.16-1.24,1.77-3.77,1.77-7.34s-.68-6.12-2.03-7.32c-1.4-1.24-2.77-1.87-4.07-1.87h-12.28v18.37Z"/>
  <path d="M122.01,104.25c-6.63,0-12.63-1.05-17.85-3.13-5.23-2.08-9.69-4.96-13.24-8.57-3.55-3.59-6.28-7.78-8.13-12.45-1.84-4.65-2.78-9.62-2.78-14.76,0-5.5.91-10.78,2.69-15.7,1.79-4.95,4.51-9.34,8.06-13.04,3.55-3.69,7.98-6.67,13.16-8.85,5.18-2.18,11.26-3.28,18.09-3.28s12.79,1.1,18.01,3.28c5.23,2.18,9.68,5.13,13.22,8.78,3.55,3.65,6.26,7.94,8.06,12.75,1.79,4.79,2.7,9.87,2.7,15.08,0,1.44-.07,2.93-.22,4.43-.14,1.47-.31,2.8-.51,3.97l-.21,1.25h-51.47c.47,2.63,1.62,4.52,3.49,5.76,2.36,1.56,4.97,2.35,7.75,2.35s5.19-.61,7.55-1.81c2.25-1.14,3.69-2.67,4.4-4.66l.47-1.32,25.74,7.35-.82,1.62c-3.12,6.14-7.97,11.21-14.42,15.09-6.44,3.88-14.44,5.84-23.76,5.84ZM122.01,27.47c-6.42,0-12.12,1.03-16.93,3.05-4.8,2.02-8.89,4.77-12.16,8.16-3.26,3.4-5.75,7.43-7.41,11.99-1.67,4.59-2.51,9.53-2.51,14.67,0,4.76.86,9.35,2.57,13.65,1.7,4.29,4.21,8.15,7.48,11.45,3.26,3.31,7.37,5.96,12.21,7.89,4.86,1.94,10.5,2.92,16.74,2.92,8.77,0,16.25-1.82,22.22-5.41,5.38-3.23,9.55-7.36,12.41-12.27l-19.58-5.59c-1.09,2.09-2.86,3.78-5.3,5.02-2.78,1.42-5.78,2.13-8.91,2.13-3.38,0-6.54-.96-9.41-2.85-3.02-1.99-4.71-5.24-5.03-9.65l-.12-1.61h52.21c.11-.78.2-1.62.29-2.51.14-1.41.2-2.8.2-4.14,0-4.85-.84-9.57-2.51-14.03-1.66-4.42-4.15-8.36-7.4-11.71-3.26-3.35-7.38-6.08-12.23-8.1-4.86-2.02-10.53-3.05-16.86-3.05ZM135.53,57.98h-27.89l.22-1.7c.51-3.89,1.99-7.03,4.39-9.33,2.44-2.33,5.58-3.51,9.33-3.51s6.89,1.18,9.33,3.51c2.4,2.3,3.88,5.43,4.39,9.33l.22,1.7ZM111.15,54.98h20.88c-.56-2.43-1.61-4.35-3.18-5.86-1.89-1.8-4.26-2.68-7.26-2.68s-5.38.88-7.26,2.68c-1.57,1.5-2.62,3.43-3.18,5.85Z"/>
  <path d="M197.66,104.39c-3.12,0-6.14-.4-8.98-1.18-2.91-.8-5.49-2.13-7.67-3.95-2.19-1.83-3.94-4.25-5.2-7.17-1.25-2.89-1.88-6.49-1.88-10.72v-32.39h-9.14v-23.11h9.14V2.67h29.72v23.2h14.48v23.11h-14.48v22.97c0,1.97.37,3.37,1.08,4.05,1.39,1.32,3.92,1.32,7.32.48,1.6-.4,3.22-.96,4.82-1.67l1.67-.74,5.46,24.1-1.15.49c-3.8,1.62-7.92,2.99-12.24,4.08-4.38,1.1-8.73,1.66-12.95,1.66ZM167.81,45.98h9.14v35.39c0,3.81.55,7.02,1.63,9.53,1.07,2.49,2.54,4.53,4.37,6.05,1.84,1.54,4.04,2.67,6.54,3.36,2.58.71,5.33,1.07,8.18,1.07,3.97,0,8.08-.53,12.22-1.57,3.74-.94,7.31-2.1,10.65-3.45l-4.11-18.13c-1.21.46-2.42.85-3.63,1.15-4.53,1.13-7.94.87-10.12-1.21-1.35-1.29-2.01-3.32-2.01-6.22v-25.97h14.48v-17.11h-14.48V5.67h-23.72v23.2h-9.14v17.11Z"/>
  <path d="M339.22,102.84h-82.17v-22.44l44.97-53.5h-42.86V0h79.22v22.41l-42.28,53.52h43.12v26.91ZM260.05,99.84h76.17v-20.91h-46.31l45.47-57.57V3h-73.22v20.9h46.3l-48.41,57.59v18.34Z"/>
  <path d="M383.84,104.25c-6.83,0-12.91-1.1-18.09-3.28-5.18-2.18-9.61-5.13-13.15-8.77-3.55-3.65-6.26-7.94-8.06-12.75-1.79-4.79-2.7-9.86-2.7-15.08s.91-10.29,2.7-15.08c1.8-4.82,4.51-9.11,8.07-12.75,3.54-3.64,7.97-6.59,13.15-8.77,5.18-2.18,11.26-3.28,18.09-3.28s12.79,1.1,18.01,3.28c5.23,2.18,9.68,5.13,13.22,8.78,3.55,3.65,6.26,7.94,8.06,12.75,1.79,4.79,2.7,9.87,2.7,15.08s-.91,10.29-2.7,15.08c-1.8,4.82-4.51,9.11-8.06,12.75-3.55,3.65-8,6.6-13.22,8.78-5.22,2.18-11.28,3.28-18.01,3.28ZM383.84,27.47c-6.42,0-12.12,1.03-16.93,3.05-4.81,2.02-8.9,4.75-12.16,8.1-3.26,3.35-5.75,7.29-7.4,11.71-1.66,4.45-2.51,9.17-2.51,14.03s.84,9.58,2.51,14.03c1.65,4.42,4.14,8.37,7.4,11.71,3.26,3.35,7.35,6.08,12.16,8.1,4.8,2.02,10.5,3.05,16.93,3.05s12-1.03,16.86-3.05c4.85-2.02,8.96-4.75,12.23-8.1,3.26-3.35,5.75-7.29,7.4-11.71,1.66-4.45,2.51-9.17,2.51-14.03s-.84-9.58-2.51-14.03c-1.65-4.42-4.15-8.36-7.4-11.71-3.26-3.35-7.38-6.08-12.23-8.1-4.86-2.02-10.53-3.05-16.86-3.05ZM383.84,81.75c-4.28,0-7.83-1.59-10.56-4.74-2.67-3.08-4.02-7.34-4.02-12.65s1.35-9.58,4.02-12.65c2.72-3.14,6.27-4.74,10.55-4.74s7.83,1.59,10.55,4.74c2.67,3.08,4.02,7.34,4.02,12.65s-1.35,9.57-4.02,12.65c-2.73,3.14-6.28,4.74-10.55,4.74ZM383.84,49.97c-3.42,0-6.13,1.21-8.29,3.7-2.18,2.52-3.29,6.11-3.29,10.69s1.11,8.17,3.29,10.69c2.16,2.49,4.87,3.7,8.29,3.7s6.13-1.21,8.29-3.7c2.18-2.52,3.29-6.12,3.29-10.69s-1.11-8.17-3.29-10.69c-2.16-2.49-4.87-3.7-8.29-3.7Z"/>
  <path d="M509.65,102.84h-29.72v-43.12c0-3.23-.68-5.54-2.02-6.88-1.36-1.36-2.88-2.02-4.63-2.02-1.9,0-4,.89-6.25,2.64-2.24,1.74-3.93,3.99-5.05,6.7v42.69h-29.72V25.87h27.05v8.13c2.43-2.59,5.42-4.68,8.93-6.25,4.9-2.19,10.76-3.29,17.41-3.29,5.32,0,9.63,1,12.81,2.97,3.15,1.95,5.6,4.43,7.26,7.35,1.63,2.87,2.71,5.97,3.2,9.23.48,3.16.72,6.08.72,8.66v50.15ZM482.93,99.84h23.72v-47.15c0-2.44-.23-5.2-.69-8.21-.44-2.89-1.4-5.65-2.84-8.2-1.41-2.49-3.51-4.6-6.23-6.29-2.7-1.67-6.48-2.52-11.23-2.52-6.23,0-11.68,1.02-16.19,3.03-4.44,1.98-7.94,4.89-10.39,8.66l-2.76,4.24v-14.52h-21.05v70.97h23.72v-40.27l.1-.26c1.31-3.33,3.36-6.1,6.1-8.23,2.79-2.17,5.51-3.27,8.09-3.27s4.83.98,6.75,2.9c1.92,1.93,2.9,4.96,2.9,9.01v40.12Z"/>
  <path d="M557.51,104.25c-6.63,0-12.63-1.05-17.85-3.13-5.23-2.08-9.69-4.96-13.24-8.57-3.55-3.6-6.29-7.79-8.13-12.45-1.84-4.65-2.78-9.62-2.78-14.76,0-5.5.91-10.78,2.69-15.7,1.8-4.96,4.51-9.34,8.06-13.04,3.55-3.69,7.97-6.67,13.16-8.85,5.18-2.18,11.26-3.28,18.09-3.28s12.79,1.1,18.01,3.28c5.23,2.18,9.67,5.13,13.22,8.78,3.55,3.65,6.26,7.94,8.06,12.75,1.79,4.79,2.7,9.87,2.7,15.08,0,1.44-.07,2.93-.22,4.43-.14,1.46-.31,2.8-.51,3.97l-.21,1.25h-51.47c.47,2.63,1.62,4.52,3.49,5.76,2.36,1.56,4.97,2.35,7.75,2.35s5.19-.61,7.55-1.81c2.25-1.14,3.69-2.67,4.4-4.66l.47-1.32,25.74,7.35-.82,1.62c-3.12,6.14-7.97,11.21-14.42,15.09-6.44,3.88-14.44,5.84-23.76,5.84ZM557.51,27.47c-6.42,0-12.12,1.03-16.93,3.05-4.8,2.02-8.89,4.77-12.16,8.16-3.26,3.4-5.75,7.43-7.41,11.99-1.67,4.59-2.51,9.53-2.51,14.67,0,4.76.86,9.35,2.57,13.65,1.7,4.29,4.21,8.14,7.48,11.45,3.26,3.31,7.37,5.96,12.21,7.89,4.86,1.94,10.5,2.92,16.74,2.92,8.78,0,16.25-1.82,22.22-5.41,5.38-3.24,9.55-7.36,12.41-12.27l-19.58-5.59c-1.09,2.09-2.86,3.78-5.3,5.02-2.78,1.42-5.78,2.13-8.91,2.13-3.38,0-6.54-.96-9.4-2.85-3.02-1.99-4.71-5.24-5.03-9.65l-.12-1.61h52.21c.11-.78.2-1.62.29-2.51.14-1.4.21-2.8.21-4.14,0-4.85-.84-9.57-2.51-14.03-1.66-4.42-4.15-8.36-7.4-11.71-3.26-3.35-7.38-6.08-12.23-8.1-4.86-2.02-10.53-3.05-16.86-3.05ZM571.03,57.98h-27.89l.22-1.7c.51-3.89,1.99-7.03,4.39-9.33,2.44-2.33,5.58-3.51,9.33-3.51s6.89,1.18,9.33,3.51c2.4,2.3,3.87,5.43,4.39,9.33l.22,1.7ZM546.64,54.98h20.88c-.56-2.43-1.61-4.35-3.18-5.86-1.89-1.8-4.26-2.68-7.26-2.68s-5.37.88-7.26,2.68c-1.57,1.5-2.62,3.43-3.18,5.85Z"/>
</svg>