<?xml version="1.0" encoding="UTF-8"?>
<svg id="Layer_1" data-name="Layer 1" xmlns="http://www.w3.org/2000/svg" viewBox="0 0 737.03 137.01">
  <path d="M51.7,106.5c-7.6,0-14.66-1.54-20.97-4.58-6.29-3.02-11.79-7.09-16.35-12.08-4.55-4.99-8.13-10.72-10.62-17.06-2.5-6.33-3.76-12.86-3.76-19.39s1.19-12.5,3.55-18.54c2.35-6.05,5.84-11.56,10.36-16.37,4.52-4.81,10.07-8.75,16.5-11.72,6.45-2.99,13.9-4.5,22.15-4.5,9.87,0,18.56,2.08,25.84,6.17,7.3,4.11,12.82,9.64,16.41,16.43l.61,1.16-23.6,16.79-.7-1.8c-.86-2.24-2.01-4.1-3.4-5.54-1.42-1.46-3.01-2.64-4.73-3.5-1.74-.87-3.57-1.49-5.44-1.84-1.92-.36-3.79-.54-5.56-.54-3.67,0-6.86.72-9.48,2.14-2.65,1.43-4.85,3.32-6.54,5.62-1.71,2.33-3.01,5.01-3.84,7.96-.85,2.99-1.28,5.99-1.28,8.94,0,3.31.5,6.51,1.47,9.52.97,3,2.39,5.67,4.24,7.96,1.82,2.26,4.09,4.09,6.75,5.44,4.03,2.05,9.05,2.56,14.4,1.42,1.82-.39,3.6-1.05,5.3-1.96,1.67-.9,3.2-2.08,4.54-3.5,1.31-1.39,2.36-3.14,3.13-5.19l.63-1.68,25.01,14.94-.49,1.19c-1.57,3.84-3.99,7.32-7.17,10.36-3.14,2.99-6.76,5.54-10.76,7.57-3.99,2.02-8.31,3.57-12.86,4.62s-9.03,1.58-13.35,1.58ZM52.55,5.25c-7.81,0-14.83,1.42-20.89,4.22-6.08,2.81-11.31,6.53-15.57,11.05-4.25,4.53-7.54,9.71-9.75,15.41-2.22,5.7-3.34,11.57-3.34,17.46s1.2,12.31,3.55,18.29c2.36,5.99,5.74,11.42,10.05,16.13,4.3,4.71,9.49,8.54,15.43,11.4,5.9,2.84,12.52,4.28,19.67,4.28,4.08,0,8.35-.51,12.67-1.51,4.31-1,8.41-2.47,12.18-4.38,3.74-1.89,7.12-4.27,10.05-7.06,2.55-2.43,4.54-5.16,5.95-8.15l-19.74-11.8c-.82,1.73-1.85,3.26-3.06,4.55-1.56,1.66-3.35,3.04-5.3,4.09-1.95,1.05-4,1.81-6.09,2.25-2.06.44-4.11.67-6.08.67-3.79,0-7.26-.79-10.31-2.34-3.04-1.54-5.64-3.64-7.73-6.23-2.08-2.57-3.68-5.57-4.76-8.92-1.07-3.31-1.62-6.83-1.62-10.45,0-3.23.47-6.51,1.39-9.76.93-3.29,2.38-6.29,4.31-8.92,1.95-2.65,4.48-4.83,7.52-6.48,3.07-1.66,6.74-2.5,10.91-2.5,1.95,0,4,.2,6.11.59,2.14.4,4.24,1.11,6.23,2.1,2.02,1.01,3.88,2.39,5.54,4.09,1.29,1.33,2.39,2.94,3.29,4.79l18.35-13.06c-3.32-5.75-8.23-10.48-14.59-14.07-6.82-3.84-15.02-5.78-24.36-5.78Z"/>
  <path d="M138.04,107.06c-6.83,0-12.91-1.1-18.09-3.28-5.18-2.18-9.6-5.13-13.15-8.77-3.55-3.65-6.26-7.94-8.06-12.75-1.79-4.78-2.7-9.85-2.7-15.08s.91-10.3,2.7-15.08c1.8-4.81,4.51-9.11,8.06-12.75,3.55-3.64,7.97-6.59,13.15-8.77,5.18-2.18,11.26-3.28,18.09-3.28s12.79,1.1,18.02,3.28c5.22,2.18,9.67,5.13,13.22,8.78,3.55,3.65,6.26,7.94,8.07,12.75,1.79,4.79,2.7,9.87,2.7,15.08s-.91,10.29-2.7,15.08c-1.8,4.82-4.52,9.11-8.07,12.75-3.55,3.64-8,6.6-13.22,8.78-5.22,2.18-11.29,3.28-18.02,3.28ZM138.04,30.28c-6.42,0-12.12,1.02-16.92,3.05-4.81,2.02-8.9,4.75-12.16,8.1-3.26,3.35-5.75,7.29-7.4,11.71-1.66,4.45-2.51,9.17-2.51,14.03s.84,9.58,2.51,14.03c1.65,4.42,4.14,8.36,7.4,11.71,3.27,3.35,7.36,6.08,12.16,8.1,4.8,2.02,10.5,3.05,16.92,3.05s12.01-1.03,16.86-3.05c4.85-2.02,8.96-4.75,12.23-8.1,3.26-3.35,5.75-7.29,7.41-11.71,1.66-4.45,2.5-9.17,2.5-14.03s-.84-9.58-2.51-14.03c-1.66-4.42-4.15-8.36-7.41-11.71-3.26-3.35-7.38-6.08-12.23-8.1-4.86-2.02-10.53-3.05-16.86-3.05ZM138.04,84.56c-4.28,0-7.83-1.59-10.55-4.74-2.67-3.08-4.02-7.34-4.02-12.65s1.35-9.57,4.02-12.65c2.72-3.14,6.28-4.74,10.55-4.74s7.83,1.59,10.56,4.74c2.67,3.08,4.02,7.34,4.02,12.65s-1.35,9.57-4.02,12.65c-2.72,3.14-6.28,4.74-10.56,4.74ZM138.04,52.78c-3.42,0-6.13,1.21-8.29,3.7-2.18,2.52-3.29,6.11-3.29,10.69s1.11,8.17,3.29,10.69c2.16,2.49,4.87,3.7,8.29,3.7s6.13-1.21,8.29-3.7c2.18-2.52,3.29-6.12,3.29-10.69s-1.11-8.17-3.29-10.69c-2.16-2.49-4.87-3.7-8.29-3.7Z"/>
  <path d="M271.94,105.65h-23.86l-8.92-25.14-8.92,25.14h-23.86l-31.46-76.97h28.46l16.66,46.3,3.21-10.98-13.83-35.32h24.55l5.2,17.81,5.2-17.81h24.56l-13.83,35.32,3.21,10.98,16.65-46.3h28.46l-31.46,76.97ZM250.19,102.65h19.73l29.01-70.97h-21.88l-19.06,52.98-6.08-20.8,12.6-32.18h-17.91l-7.45,25.5-7.45-25.5h-17.91l12.6,32.18-6.07,20.8-19.06-52.98h-21.88l29.01,70.97h19.73l11.04-31.11,11.04,31.11Z"/>
  <path d="M340.25,107.06c-6.83,0-12.91-1.1-18.09-3.28-5.18-2.18-9.6-5.13-13.15-8.77-3.55-3.65-6.26-7.94-8.06-12.75-1.79-4.78-2.7-9.85-2.7-15.08s.91-10.3,2.7-15.08c1.8-4.81,4.51-9.11,8.06-12.75,3.55-3.64,7.97-6.59,13.15-8.77,5.18-2.18,11.26-3.28,18.09-3.28s12.79,1.1,18.02,3.28c5.22,2.18,9.67,5.13,13.22,8.78,3.55,3.65,6.26,7.94,8.07,12.75,1.79,4.79,2.7,9.87,2.7,15.08s-.91,10.29-2.7,15.08c-1.8,4.82-4.52,9.11-8.07,12.75-3.55,3.64-8,6.6-13.22,8.78-5.22,2.18-11.29,3.28-18.02,3.28ZM340.25,30.28c-6.42,0-12.12,1.02-16.92,3.05-4.81,2.02-8.9,4.75-12.16,8.1-3.26,3.35-5.75,7.29-7.4,11.71-1.66,4.45-2.51,9.17-2.51,14.03s.84,9.58,2.51,14.03c1.65,4.42,4.14,8.36,7.4,11.71,3.27,3.35,7.36,6.08,12.16,8.1,4.8,2.02,10.5,3.05,16.92,3.05s12.01-1.03,16.86-3.05c4.85-2.02,8.96-4.75,12.23-8.1,3.26-3.35,5.75-7.29,7.41-11.71,1.66-4.45,2.5-9.17,2.5-14.03s-.84-9.58-2.51-14.03c-1.66-4.42-4.15-8.36-7.41-11.71-3.26-3.35-7.38-6.08-12.23-8.1-4.86-2.02-10.53-3.05-16.86-3.05ZM340.25,84.56c-4.28,0-7.83-1.59-10.55-4.74-2.67-3.08-4.02-7.34-4.02-12.65s1.35-9.57,4.02-12.65c2.72-3.14,6.28-4.74,10.55-4.74s7.83,1.59,10.56,4.74c2.67,3.08,4.02,7.34,4.02,12.65s-1.35,9.57-4.02,12.65c-2.72,3.14-6.28,4.74-10.56,4.74ZM340.25,52.78c-3.42,0-6.13,1.21-8.29,3.7-2.18,2.52-3.29,6.11-3.29,10.69s1.11,8.17,3.29,10.69c2.16,2.49,4.87,3.7,8.29,3.7s6.13-1.21,8.29-3.7c2.18-2.52,3.29-6.12,3.29-10.69s-1.11-8.17-3.29-10.69c-2.16-2.49-4.87-3.7-8.29-3.7Z"/>
  <path d="M418.39,105.65h-29.72V28.69h27.47v10.27c2.16-3.02,4.65-5.5,7.42-7.4,4.13-2.83,8.65-4.27,13.44-4.27,2.49,0,3.27.09,3.67.17l1.21.24v26.78h-1.5c-5,0-9.6.55-13.68,1.64-3.66.98-6.45,2.56-8.31,4.71v44.84ZM391.67,102.65h23.72v-42.89l.32-.41c2.25-2.87,5.69-4.94,10.21-6.15,3.91-1.04,8.26-1.62,12.95-1.72v-21.18c-.45-.01-1.06-.03-1.88-.03-4.17,0-8.12,1.26-11.74,3.74-3.67,2.52-6.8,6.2-9.29,10.92l-2.83,5.35v-18.61h-21.47v70.97Z"/>
  <path d="M528.55,105.65h-31.92l-16.12-26.02-3.62,4v22.02h-29.72V0h29.72v52.95l17.42-24.26h31.98l-26.69,33.91,28.95,43.05ZM498.3,102.65h24.61l-27.02-40.19,24.22-30.77h-24.27l-21.96,30.58V3h-23.72v99.65h23.72v-20.17l7.07-7.81,17.34,27.98Z"/>
  <path d="M558.73,105.65h-29.72V28.69h29.72v76.97ZM532.01,102.65h23.72V31.69h-23.72v70.97ZM558.73,25.5h-29.72V0h29.72v25.5ZM532.01,22.5h23.72V3h-23.72v19.5Z"/>
  <path d="M646.61,105.65h-29.72v-43.12c0-3.22-.68-5.54-2.02-6.88-1.36-1.36-2.88-2.02-4.63-2.02-1.9,0-4,.89-6.25,2.64-2.23,1.74-3.93,3.99-5.04,6.7v42.69h-29.72V28.69h27.05v8.13c2.43-2.59,5.42-4.68,8.93-6.25,4.91-2.19,10.77-3.29,17.42-3.29,5.32,0,9.63,1,12.81,2.97,3.16,1.95,5.6,4.43,7.26,7.35,1.63,2.86,2.71,5.97,3.2,9.23.48,3.16.72,6.07.72,8.66v50.15ZM619.89,102.65h23.72v-47.15c0-2.44-.23-5.21-.69-8.21-.44-2.9-1.4-5.66-2.84-8.2-1.41-2.49-3.51-4.6-6.24-6.29-2.7-1.67-6.48-2.52-11.23-2.52-6.23,0-11.67,1.02-16.19,3.03-4.44,1.98-7.94,4.89-10.39,8.66l-2.76,4.23v-14.52h-21.05v70.97h23.72v-40.27l.1-.26c1.31-3.33,3.36-6.1,6.1-8.23,2.79-2.17,5.51-3.27,8.09-3.27s4.83.98,6.76,2.9c1.92,1.93,2.9,4.96,2.9,9.01v40.12Z"/>
  <path d="M690.53,137.01c-8.04,0-15.14-1.27-21.11-3.77-5.97-2.51-11.34-6.17-15.96-10.88l-1.02-1.04,16.09-16.74,1.08,1.01c2.58,2.4,5.74,4.47,9.38,6.13,3.58,1.64,7.46,2.47,11.54,2.47,2.27,0,4.47-.31,6.53-.92,1.99-.59,3.77-1.56,5.28-2.86,1.5-1.3,2.71-3.03,3.6-5.14.9-2.15,1.36-4.79,1.36-7.86h0c-1.95,2.22-4.32,4-7.07,5.29-4.17,1.96-8.8,2.96-13.79,2.96s-9.63-1.02-13.8-3.03c-4.16-2-7.75-4.78-10.69-8.26-2.92-3.45-5.21-7.56-6.81-12.22-1.59-4.64-2.4-9.72-2.4-15.11,0-5.68.88-11.01,2.62-15.84,1.75-4.85,4.24-9.09,7.4-12.59,3.17-3.51,7-6.31,11.39-8.3,4.4-2,9.29-3.02,14.54-3.02,5.56,0,10.53,1.12,14.76,3.33,2.84,1.49,5.31,3.44,7.37,5.84v-7.77h26.2v68.72c0,6-1.13,11.51-3.37,16.38-2.24,4.87-5.45,9.07-9.54,12.48-4.07,3.39-9.01,6.06-14.69,7.94-5.66,1.87-12.02,2.82-18.89,2.82ZM656.64,121.28c4.1,3.94,8.78,7.02,13.94,9.19,5.6,2.35,12.32,3.54,19.95,3.54,6.55,0,12.59-.9,17.95-2.67,5.32-1.76,9.93-4.25,13.71-7.39,3.74-3.12,6.68-6.96,8.74-11.43,2.06-4.47,3.1-9.56,3.1-15.12V31.69h-20.2v15.03l-2.8-4.81c-2.19-3.76-5.2-6.67-8.96-8.63-3.79-1.99-8.29-2.99-13.37-2.99s-9.3.92-13.3,2.75c-4.01,1.83-7.51,4.38-10.41,7.58-2.9,3.21-5.19,7.11-6.8,11.6-1.62,4.5-2.44,9.49-2.44,14.82,0,5.06.75,9.81,2.24,14.14,1.48,4.31,3.59,8.1,6.27,11.26,2.66,3.15,5.93,5.67,9.7,7.49,3.76,1.81,7.96,2.73,12.5,2.73s8.75-.9,12.51-2.67c3.67-1.73,6.54-4.45,8.53-8.08l2.82-5.14v10.64c0,3.47-.54,6.5-1.59,9.02-1.07,2.54-2.55,4.65-4.41,6.25-1.84,1.58-3.99,2.75-6.38,3.47-2.34.69-4.83,1.05-7.39,1.05-4.51,0-8.81-.92-12.79-2.74-3.43-1.57-6.48-3.48-9.07-5.68l-12.04,12.52ZM696.01,84.56c-4.62,0-8.49-1.57-11.48-4.68-2.99-3.08-4.5-7.17-4.5-12.15,0-2.4.36-4.71,1.06-6.86.71-2.19,1.75-4.1,3.09-5.7,1.33-1.59,2.92-2.89,4.72-3.87,1.85-1.01,3.87-1.52,5.99-1.52,3.14,0,6.16,1.1,9,3.26,2.79,2.13,4.91,5.04,6.32,8.66l.1.26v13.98l-.27.39c-1.89,2.68-3.95,4.73-6.12,6.1-2.25,1.41-4.91,2.13-7.9,2.13ZM694.89,52.78c-1.61,0-3.15.39-4.55,1.15-1.47.8-2.77,1.86-3.86,3.16-1.09,1.3-1.95,2.88-2.54,4.7-.6,1.86-.91,3.85-.91,5.93,0,4.23,1.2,7.52,3.66,10.07,2.45,2.53,5.5,3.76,9.33,3.76,2.42,0,4.54-.56,6.31-1.67,1.74-1.09,3.41-2.74,4.99-4.91v-12.45c-1.21-2.98-2.97-5.37-5.25-7.11-2.33-1.78-4.68-2.64-7.18-2.64Z"/>
</svg>