<?xml version="1.0" encoding="UTF-8"?>
<svg id="Layer_1" data-name="Layer 1" xmlns="http://www.w3.org/2000/svg" viewBox="0 0 514.5 99">
  <path d="M33.04,2.68h23.81l32.91,94.98h-26.49l-5.75-18.59h-25.28l-5.62,18.59H0L33.04,2.68ZM53.38,61.67l-8.43-29.43-8.83,29.43h17.26Z"/>
  <path d="M94.71,0h25.42v69.7c0,5.35,2.18,8.03,6.56,8.03,1.07,0,2.23-.18,3.48-.54,1.25-.36,2.41-.85,3.48-1.47l3.21,18.73c-3.03,1.43-6.44,2.54-10.23,3.34-3.79.8-7.38,1.2-10.77,1.2-6.78,0-12-1.74-15.65-5.22-3.66-3.48-5.49-8.52-5.49-15.12V0Z"/>
  <path d="M187.55,99c-10.61,0-18.19-4.1-22.74-12.31v10.97h-22.07V0h25.42v37.73c2.05-3.83,4.95-6.76,8.7-8.76,3.75-2.01,8.16-3.01,13.24-3.01,4.28,0,8.27.94,11.97,2.81,3.7,1.87,6.89,4.44,9.57,7.69,2.68,3.26,4.77,7.14,6.29,11.64,1.52,4.5,2.27,9.39,2.27,14.65s-.83,10.1-2.47,14.51c-1.65,4.42-3.93,8.23-6.82,11.44-2.9,3.21-6.35,5.73-10.37,7.56-4.01,1.83-8.34,2.74-12.98,2.74ZM180.2,77.59c4.19,0,7.56-1.34,10.1-4.01,2.54-2.68,3.81-6.24,3.81-10.7,0-2.14-.33-4.15-1-6.02s-1.56-3.52-2.67-4.95c-1.12-1.43-2.45-2.54-4.01-3.34-1.56-.8-3.28-1.2-5.15-1.2-2.68,0-5.22.96-7.62,2.88-2.41,1.92-4.24,4.44-5.49,7.56v12.58c3.3,4.82,7.31,7.22,12.04,7.22Z"/>
  <path d="M263.94,99c-6.15,0-11.64-.96-16.45-2.88-4.82-1.92-8.85-4.53-12.11-7.83-3.26-3.3-5.73-7.09-7.42-11.37-1.7-4.28-2.54-8.78-2.54-13.51,0-5.08.82-9.9,2.47-14.45,1.65-4.55,4.1-8.52,7.36-11.91,3.25-3.39,7.27-6.09,12.04-8.09,4.77-2.01,10.32-3.01,16.66-3.01s11.77,1,16.59,3.01c4.82,2.01,8.85,4.68,12.11,8.03,3.25,3.34,5.71,7.22,7.36,11.64,1.65,4.42,2.48,9.03,2.48,13.85,0,1.34-.07,2.7-.2,4.08-.13,1.38-.29,2.61-.47,3.68h-49.36c.27,3.75,1.65,6.44,4.15,8.09,2.5,1.65,5.22,2.48,8.16,2.48,2.76,0,5.37-.62,7.83-1.87,2.45-1.25,4.08-2.99,4.88-5.22l21.54,6.15c-2.86,5.62-7.25,10.21-13.18,13.78-5.93,3.57-13.22,5.35-21.87,5.35ZM275.18,54.98c-.45-3.39-1.7-6.06-3.75-8.03-2.05-1.96-4.68-2.94-7.89-2.94s-5.84.98-7.89,2.94c-2.05,1.96-3.3,4.64-3.75,8.03h23.28Z"/>
  <path d="M358.52,48.96c-4.91,0-9.36.54-13.38,1.61-4.01,1.07-7,2.86-8.96,5.35v41.74h-25.42V27.29h23.28v13.38c2.5-4.73,5.6-8.36,9.3-10.9,3.7-2.54,7.69-3.81,11.97-3.81,1.69,0,2.76.05,3.21.13v22.88Z"/>
  <path d="M362.53,62.47c0-4.82.85-9.43,2.54-13.85,1.69-4.42,4.17-8.29,7.42-11.64,3.25-3.34,7.29-6.02,12.11-8.03,4.82-2.01,10.34-3.01,16.59-3.01,8.56,0,15.72,1.79,21.47,5.35,5.75,3.57,10.05,8.16,12.91,13.78l-24.75,7.49c-2.41-3.48-5.66-5.22-9.77-5.22-3.48,0-6.42,1.32-8.83,3.95-2.41,2.63-3.61,6.35-3.61,11.17s1.2,8.54,3.61,11.17c2.41,2.63,5.35,3.95,8.83,3.95,4.1,0,7.36-1.74,9.77-5.22l24.75,7.49c-2.86,5.62-7.16,10.21-12.91,13.78-5.75,3.57-12.91,5.35-21.47,5.35-6.24,0-11.77-1-16.59-3.01-4.82-2.01-8.85-4.68-12.11-8.03-3.26-3.34-5.73-7.22-7.42-11.64-1.7-4.41-2.54-9.03-2.54-13.85Z"/>
  <path d="M464.33,99c-3.48,0-6.73-.58-9.77-1.74-3.03-1.16-5.64-2.74-7.83-4.75-2.19-2.01-3.9-4.39-5.15-7.16-1.25-2.76-1.87-5.75-1.87-8.96,0-3.57.76-6.82,2.27-9.77,1.51-2.94,3.61-5.49,6.29-7.62,2.68-2.14,5.86-3.79,9.57-4.95,3.7-1.16,7.78-1.74,12.24-1.74,5.71,0,10.43.89,14.18,2.68v-2.14c0-3.3-.96-5.75-2.88-7.36-1.92-1.61-5.02-2.41-9.3-2.41-4.01,0-7.72.65-11.1,1.94-3.39,1.29-6.96,3.19-10.7,5.69l-7.36-15.79c9.28-5.97,19.84-8.96,31.71-8.96,11.24,0,19.89,2.5,25.95,7.49,6.06,5,9.1,12.49,9.1,22.47v13.65c0,2.41.36,4.08,1.07,5.02.71.94,1.96,1.49,3.75,1.67v21.4c-2.05.45-3.99.78-5.82,1-1.83.22-3.46.33-4.88.33-4.55,0-8.01-.83-10.37-2.47-2.36-1.65-3.9-4.08-4.62-7.29l-.54-2.54c-3.12,4.01-6.73,7.07-10.84,9.16-4.1,2.09-8.47,3.14-13.11,3.14ZM471.96,80.8c1.52,0,3.08-.25,4.68-.74,1.61-.49,3.03-1.14,4.28-1.94.98-.71,1.78-1.49,2.41-2.34.62-.85.94-1.72.94-2.61v-5.22c-1.52-.54-3.17-.98-4.95-1.34-1.79-.36-3.39-.54-4.82-.54-3.12,0-5.71.76-7.76,2.27-2.05,1.52-3.08,3.43-3.08,5.75,0,1.96.78,3.57,2.34,4.82,1.56,1.25,3.54,1.87,5.95,1.87Z"/>
</svg>